REM DIRINDEX 1\2\6,1\2\7,1\2\8,1\2\9,1\3\10,1\3\11,1\4\12,1\4\13,1\4\14,1\5\15,1\5\16,1\5\17
REM DIRNAME folder01,folder02,folder03,folder04,folder05,folder06,folder07,folder08,folder09,folder10,folder11,folder12,folder13,folder14,folder15,folder16,folder17
TITLE ""
FILE "1900_2_sec10_0901_0916.mp3" MP3
  TRACK 01 AUDIO
    TITLE "0:"
    INDEX 01 00:00:00
  TRACK 02 AUDIO
    TITLE "12:cjc020_3924"
    INDEX 01 00:03:23
  TRACK 03 AUDIO
    TITLE "0:"
    INDEX 01 00:04:74
  TRACK 04 AUDIO
    TITLE "12:cjc020_3925"
    INDEX 01 00:05:42
  TRACK 05 AUDIO
    TITLE "0:"
    INDEX 01 00:06:65
  TRACK 06 AUDIO
    TITLE "13:cjc020_3926"
    INDEX 01 00:07:66
  TRACK 07 AUDIO
    TITLE "0:"
    INDEX 01 00:09:16
  TRACK 08 AUDIO
    TITLE "14:cjc020_3927"
    INDEX 01 00:09:18
  TRACK 09 AUDIO
    TITLE "0:"
    INDEX 01 00:12:58
  TRACK 10 AUDIO
    TITLE "13:cjc020_3928"
    INDEX 01 00:13:37
  TRACK 11 AUDIO
    TITLE "0:"
    INDEX 01 00:14:47
  TRACK 12 AUDIO
    TITLE "14:cjc020_3929"
    INDEX 01 00:14:49
  TRACK 13 AUDIO
    TITLE "0:"
    INDEX 01 00:17:27
  TRACK 14 AUDIO
    TITLE "13:cjc020_3930"
    INDEX 01 00:18:05
  TRACK 15 AUDIO
    TITLE "0:"
    INDEX 01 00:19:28
  TRACK 16 AUDIO
    TITLE "14:cjc020_3931"
    INDEX 01 00:19:34
  TRACK 17 AUDIO
    TITLE "0:"
    INDEX 01 00:22:15
  TRACK 18 AUDIO
    TITLE "13:cjc020_3932"
    INDEX 01 00:23:03
  TRACK 19 AUDIO
    TITLE "0:"
    INDEX 01 00:24:02
  TRACK 20 AUDIO
    TITLE "14:cjc020_3933"
    INDEX 01 00:24:08
  TRACK 21 AUDIO
    TITLE "0:"
    INDEX 01 00:25:07
  TRACK 22 AUDIO
    TITLE "13:cjc020_3934"
    INDEX 01 00:25:62
  TRACK 23 AUDIO
    TITLE "0:"
    INDEX 01 00:26:73
  TRACK 24 AUDIO
    TITLE "14:cjc020_3935"
    INDEX 01 00:27:00
  TRACK 25 AUDIO
    TITLE "0:"
    INDEX 01 00:31:08
  TRACK 26 AUDIO
    TITLE "13:cjc020_3936"
    INDEX 01 00:31:67
  TRACK 27 AUDIO
    TITLE "0:"
    INDEX 01 00:33:11
  TRACK 28 AUDIO
    TITLE "14:cjc020_3937"
    INDEX 01 00:33:15
  TRACK 29 AUDIO
    TITLE "0:"
    INDEX 01 00:34:28
  TRACK 30 AUDIO
    TITLE "13:cjc020_3938"
    INDEX 01 00:35:10
  TRACK 31 AUDIO
    TITLE "0:"
    INDEX 01 00:36:31
  TRACK 32 AUDIO
    TITLE "14:cjc020_3939"
    INDEX 01 00:36:33
  TRACK 33 AUDIO
    TITLE "0:"
    INDEX 01 00:37:48
  TRACK 34 AUDIO
    TITLE "13:cjc020_3940"
    INDEX 01 00:38:26
  TRACK 35 AUDIO
    TITLE "0:"
    INDEX 01 00:39:51
  TRACK 36 AUDIO
    TITLE "14:cjc020_3941"
    INDEX 01 00:39:54
  TRACK 37 AUDIO
    TITLE "0:"
    INDEX 01 00:43:33
  TRACK 38 AUDIO
    TITLE "13:cjc020_3942"
    INDEX 01 00:44:14
  TRACK 39 AUDIO
    TITLE "0:"
    INDEX 01 00:45:06
  TRACK 40 AUDIO
    TITLE "14:cjc020_3943"
    INDEX 01 00:45:22
  TRACK 41 AUDIO
    TITLE "0:"
    INDEX 01 00:47:27
  TRACK 42 AUDIO
    TITLE "13:cjc020_3944"
    INDEX 01 00:48:06
  TRACK 43 AUDIO
    TITLE "0:"
    INDEX 01 00:49:08
  TRACK 44 AUDIO
    TITLE "14:cjc020_3945"
    INDEX 01 00:49:14
  TRACK 45 AUDIO
    TITLE "0:"
    INDEX 01 00:52:65
  TRACK 46 AUDIO
    TITLE "13:cjc020_3946"
    INDEX 01 00:53:45
  TRACK 47 AUDIO
    TITLE "0:"
    INDEX 01 00:54:52
  TRACK 48 AUDIO
    TITLE "14:cjc020_3947"
    INDEX 01 00:54:56
  TRACK 49 AUDIO
    TITLE "0:"
    INDEX 01 00:57:29
  TRACK 50 AUDIO
    TITLE "13:cjc020_3948"
    INDEX 01 00:58:09
  TRACK 51 AUDIO
    TITLE "0:"
    INDEX 01 00:59:10
  TRACK 52 AUDIO
    TITLE "14:cjc020_3949"
    INDEX 01 00:59:14
  TRACK 53 AUDIO
    TITLE "0:"
    INDEX 01 01:00:33
  TRACK 54 AUDIO
    TITLE "13:cjc020_3950"
    INDEX 01 01:01:13
  TRACK 55 AUDIO
    TITLE "0:"
    INDEX 01 01:02:28
  TRACK 56 AUDIO
    TITLE "14:cjc020_3951"
    INDEX 01 01:02:30
  TRACK 57 AUDIO
    TITLE "0:"
    INDEX 01 01:05:28
  TRACK 58 AUDIO
    TITLE "13:cjc020_3952"
    INDEX 01 01:06:16
  TRACK 59 AUDIO
    TITLE "0:"
    INDEX 01 01:07:33
  TRACK 60 AUDIO
    TITLE "14:cjc020_3953"
    INDEX 01 01:07:39
  TRACK 61 AUDIO
    TITLE "0:"
    INDEX 01 01:10:02
  TRACK 62 AUDIO
    TITLE "13:cjc020_3954"
    INDEX 01 01:10:57
  TRACK 63 AUDIO
    TITLE "0:"
    INDEX 01 01:12:05
  TRACK 64 AUDIO
    TITLE "14:cjc020_3955"
    INDEX 01 01:12:11
  TRACK 65 AUDIO
    TITLE "0:"
    INDEX 01 01:15:58
  TRACK 66 AUDIO
    TITLE "13:cjc020_3956"
    INDEX 01 01:16:38
  TRACK 67 AUDIO
    TITLE "0:"
    INDEX 01 01:17:63
  TRACK 68 AUDIO
    TITLE "14:cjc020_3957"
    INDEX 01 01:17:69
  TRACK 69 AUDIO
    TITLE "0:"
    INDEX 01 01:20:28
